<svg xmlns="http://www.w3.org/2000/svg" viewBox="0 0 103.8 42">
  <title>logo-agusta</title>
  <g id="Layer_2" data-name="Layer 2">
    <g id="Layer_2-2" data-name="Layer 2">
      <g>
        <path d="M89.7,8.3l-4.3,5.8A96.4,96.4,0,0,0,62.6,8.4l-1-7.2C58.2.9,54.9.7,51.5.7s-6.2.1-9.2.4l-1,7.2a95.8,95.8,0,0,0-22.9,5.5L14.1,7.9A101.6,101.6,0,0,0,.9,14.5l9.4,25.9A72.1,72.1,0,0,1,51.5,27.6a73.3,73.3,0,0,1,42,13.3L103,15A97.4,97.4,0,0,0,89.7,8.3Z" fill="#284d9d" stroke="#ab8234" stroke-width="1.4"/>
        <path d="M27.3,28l-3,1.2-1.7-2.1-4.2,1.8.3,2.7-2.9,1.3L14.4,18.8l3.8-1.6ZM18,26.3l3-1.2-3.7-4.6Zm16.1.2c-3.2.8-5.3-.5-5.8-2.8L27,18.2c-.6-2.4.7-4.4,4-5.2a24.7,24.7,0,0,1,4.4-.5l.2,2.6-4,.6c-1.5.4-1.7,1.2-1.5,2.2l1.1,4.5a1.7,1.7,0,0,0,2.3,1.5l1.8-.6-1-4,2.9-.6,1.4,6.1A14.4,14.4,0,0,1,34.1,26.5ZM51.6,10.8l.5,9.5c.1,2-1,4.2-4.9,4.4s-5.3-1.8-5.4-3.8l-.5-9.6h3.1l.5,9.2c0,1.1.6,1.7,2.1,1.6s2.1-.7,2-1.8l-.5-9.3ZM59,25a10.9,10.9,0,0,1-4.3-1.4l.7-2.2a12.4,12.4,0,0,0,3.9,1c1.6.2,1.9-.1,2-1.2s.1-1.4-2.1-2.1-3.6-1.7-3.3-4.6,1.3-3.7,5.1-3.3a25.6,25.6,0,0,1,4.1.9l-.6,2.5-3.7-.8c-1.4-.1-1.8.1-1.9,1.1s0,1.3,2.1,2,3.7,2,3.4,4.6S63.1,25.4,59,25Zm15.5-8.3L71.8,27.1l-3-.7,2.7-10.5L67.9,15l.7-2.6L78.7,15,78,17.6ZM87.2,32.9l-3-1.2.3-2.7-4.2-1.8-1.7,2.2-3-1.3,9.1-10.8,3.8,1.6Zm-5.3-7.7,2.9,1.2.7-5.8Z" fill="#fff"/>
      </g>
    </g>
  </g>
</svg>
