<svg xmlns="http://www.w3.org/2000/svg" viewBox="0 0 140.8 140.8">
  <title>logo-gear</title>
  <g id="Layer_2" data-name="Layer 2">
    <g id="Layer_2-2" data-name="Layer 2">
      <path d="M139.8,76.6c.2-2,.3-4.1.3-6.2s-.1-4.8-.3-7.1l-8.3-2.1a61.6,61.6,0,0,0-3.8-13.7l6.1-6a69.5,69.5,0,0,0-6.6-11.6L119,32.3a62.1,62.1,0,0,0-10.3-10.2l2.4-8.3A72.4,72.4,0,0,0,99.7,7.1l-5.9,6.2A57.8,57.8,0,0,0,79.4,9.4L77.3,1,70.4.7,64.3,1l-2,8.2a62.1,62.1,0,0,0-14.8,3.9L41.5,7a75.6,75.6,0,0,0-11.1,6.3l2.4,8.2A58.3,58.3,0,0,0,21.7,32.6l-8.3-2.3A73.6,73.6,0,0,0,7.1,41.2l6.2,5.9a59.5,59.5,0,0,0-4,14.6L1,63.7C.8,65.9.7,68.2.7,70.4A54.9,54.9,0,0,0,1,76.2l8.2,2.1a62.1,62.1,0,0,0,4.1,15.5L7.1,99.7a72.5,72.5,0,0,0,6.3,10.8l8.2-2.3a65.9,65.9,0,0,0,11.2,11.2l-2.4,8.1a67.5,67.5,0,0,0,11.1,6.3l5.9-6.1a63.7,63.7,0,0,0,15,3.9l2,8.3,6,.2,6.9-.3,2.1-8.3a58,58,0,0,0,14.4-4l5.9,6.2a74.2,74.2,0,0,0,11.3-6.6l-2.3-8.3A62.7,62.7,0,0,0,119,108.5l8.2,2.4a68.6,68.6,0,0,0,6.6-11.5l-6.1-6a59.3,59.3,0,0,0,3.9-14.6Z" fill="#ab8235" stroke="#161615" stroke-miterlimit="10" stroke-width="1.4"/>
    </g>
  </g>
</svg>
